<svg width="8" height="8" viewBox="0 0 8 8" fill="none" xmlns="http://www.w3.org/2000/svg">
<path fill-rule="evenodd" clip-rule="evenodd" d="M3.99993 0.333374C4.1268 0.333374 4.24267 0.405398 4.29883 0.519166L5.25135 2.44886L7.38147 2.76021C7.50699 2.77856 7.61122 2.86656 7.65034 2.98723C7.68947 3.1079 7.65671 3.24032 7.56584 3.32883L6.02477 4.82983L6.38846 6.95036C6.40991 7.07542 6.3585 7.20182 6.25584 7.27639C6.15318 7.35097 6.01708 7.36079 5.90478 7.30173L3.99993 6.29999L2.09508 7.30173C1.98277 7.36079 1.84668 7.35097 1.74402 7.27639C1.64136 7.20182 1.58994 7.07542 1.61139 6.95036L1.97509 4.82983L0.434017 3.32883C0.343145 3.24032 0.310387 3.1079 0.349513 2.98723C0.388639 2.86656 0.492866 2.77856 0.618386 2.76021L2.74851 2.44886L3.70103 0.519166C3.75718 0.405398 3.87306 0.333374 3.99993 0.333374ZM3.99993 1.41979L3.26883 2.90092C3.22032 2.9992 3.12659 3.06735 3.01814 3.0832L1.38273 3.32224L2.56584 4.47459C2.64446 4.55117 2.68035 4.66155 2.6618 4.76972L2.38265 6.39727L3.84478 5.62835C3.94191 5.57727 4.05795 5.57727 4.15508 5.62835L5.6172 6.39727L5.33806 4.76972C5.31951 4.66155 5.35539 4.55117 5.43402 4.47459L6.61712 3.32224L4.98172 3.0832C4.87327 3.06735 4.77954 2.9992 4.73103 2.90092L3.99993 1.41979Z" fill="#F2994A"/>
<path d="M2.33333 5L1 3L3 2.66667L4 1L5 2.66667L7 3.33333L5.66667 4.66667L6 7L4 6L2 7L2.33333 5Z" fill="#F2994A"/>
</svg>
