<svg width="21" height="21" viewBox="0 0 21 21" fill="none" xmlns="http://www.w3.org/2000/svg">
<path d="M12.1831 10.3246L9.82477 9.22423C9.61897 9.12868 9.44992 9.23578 9.44992 9.46363V11.5363C9.44992 11.7642 9.61897 11.8713 9.82477 11.7757L12.182 10.6753C12.3889 10.5787 12.3889 10.4212 12.1831 10.3246ZM10.4999 0.419983C4.93282 0.419983 0.419922 4.93288 0.419922 10.5C0.419922 16.0671 4.93282 20.58 10.4999 20.58C16.067 20.58 20.5799 16.0671 20.5799 10.5C20.5799 4.93288 16.067 0.419983 10.4999 0.419983ZM10.4999 14.595C5.34022 14.595 5.24992 14.1298 5.24992 10.5C5.24992 6.87013 5.34022 6.40498 10.4999 6.40498C15.6596 6.40498 15.7499 6.87013 15.7499 10.5C15.7499 14.1298 15.6596 14.595 10.4999 14.595Z" fill="#BDBDBD"/>
</svg>
